<?xml version="1.0" encoding="iso-8859-1"?>
<!-- Uploaded to: SVG Repo, www.svgrepo.com, Generator: SVG Repo Mixer Tools -->
<svg fill="#000000" height="800px" width="800px" version="1.1" id="Layer_1" xmlns="http://www.w3.org/2000/svg" xmlns:xlink="http://www.w3.org/1999/xlink" 
	 viewBox="0 0 480.001 480.001" xml:space="preserve">
<g id="XMLID_241_">
	<g>
		<g>
			<path d="M234.984,240h10.001c33.086,0,60.004-26.916,60.004-60c0-5.523-4.477-10-10.001-10h-9.764
				c-13.831,0-25.523-9.333-29.108-22.032c12.119-3.094,23.143-9.649,31.746-19.009c11.044-12.017,17.127-27.628,17.127-43.959
				s-6.082-31.942-17.127-43.959c-10.445-11.364-24.456-18.593-39.665-20.514C247.189,20.186,234.984,20,234.984,20
				c-60.659,0-110.008,49.346-110.008,110S174.325,240,234.984,240z M234.984,40c0,0,8.671,0.157,9.103,0.196
				C267.404,42.298,284.988,61.56,284.988,85s-17.584,42.702-40.901,44.804c-0.428,0.039-4.815,0.188-5.184,0.183
				c-15.037-0.354-28.42-7.992-36.369-19.987h7.449c19.462,0,37.738-8.613,50.142-23.632c3.517-4.258,2.916-10.561-1.343-14.078
				c-4.258-3.517-10.562-2.917-14.079,1.343C236.111,84.034,223.456,90,209.982,90H187.08c-3.134,0-6.086,1.469-7.976,3.968
				c-1.89,2.499-2.5,5.74-1.647,8.755c7.587,26.812,30.936,45.502,58.55,47.158c4.598,22.396,24.148,39.405,47.72,40.098
				C279.284,207.223,263.598,220,244.985,220h-10.001c-49.63,0-90.007-40.374-90.007-90C144.977,80.374,185.354,40,234.984,40z"/>
			<path d="M384.995,150.001c-3.199,0-6.206,1.531-8.088,4.118l-56.477,77.65C307.572,249.446,286.845,260,264.986,260
				c-5.524,0-10.001,4.477-10.001,10s4.478,10,10.001,10c28.238,0,55.011-13.633,71.619-36.468l53.202-73.146
				c14.264,2.309,25.19,14.71,25.19,29.614v260h-21.98l-38.262-172.17c-1.198-5.391-6.537-8.791-11.932-7.592
				c-5.392,1.198-8.791,6.539-7.593,11.931l40.003,180c1.016,4.576,5.075,7.831,9.762,7.831h40.003c5.524,0,10.001-4.477,10.001-10
				V200C434.999,172.43,412.567,150,384.995,150.001z"/>
			<path d="M294.817,308.157c-1.017-5.429-6.245-9.002-11.672-7.986c-5.428,1.017-9.004,6.243-7.986,11.671l25.561,136.314
				c0.753,4.016-1.014,6.879-2.134,8.229c-1.12,1.35-3.61,3.614-7.696,3.614H74.747c-11.314,0-21.174-6.056-26.376-16.2
				c-2.273-4.433-3.406-9.136-3.42-13.803c0.442-0.013,0.89-0.056,1.339-0.13c67.695-11.161,134.843-47.274,189.073-101.686
				c3.899-3.912,3.888-10.244-0.024-14.142c-3.912-3.899-10.244-3.887-14.143,0.024C172.784,362.637,113.7,395.759,53.75,408.143
				L168.16,248.98c3.223-4.485,2.201-10.734-2.284-13.957c-4.485-3.221-10.734-2.201-13.958,2.284L34.466,400.704
				c-11.042,15.362-12.534,35.372-3.894,52.222c8.563,16.7,25.49,27.075,44.174,27.075H290.89c8.954,0,17.369-3.951,23.087-10.841
				c5.718-6.89,8.051-15.888,6.401-24.688L294.817,308.157z"/>
			<path d="M389.995,0h-25.002c-22.058,0-40.003,17.944-40.003,40v25c0,35.841,29.161,65,65.005,65S455,100.841,455,65
				S425.839,0,389.995,0z M364.993,20h25.002c19.529,0,36.192,12.501,42.405,29.922c-0.924,0.052-1.85,0.078-2.774,0.078H386.33
				c-15.413,0-29.75-7.091-39.115-19.159C350.544,24.408,357.264,20,364.993,20z M389.995,110c-24.815,0-45.003-20.187-45.003-45
				v-8.606C356.778,65.125,371.184,70,386.33,70h43.296c1.705,0,3.413-0.063,5.117-0.189C432.334,92.37,413.185,110,389.995,110z"/>
		</g>
	</g>
</g>
</svg>