<?xml version="1.0" ?><!-- Uploaded to: SVG Repo, www.svgrepo.com, Generator: SVG Repo Mixer Tools -->
<svg width="800px" height="800px" viewBox="0 0 64 64" xmlns="http://www.w3.org/2000/svg"><defs><style>.a{fill:none;stroke:#000000;stroke-linejoin:round;stroke-width:2px;}</style></defs><title/><path class="a" d="M51.76,45.75a88.46,88.46,0,0,1-39.52,0c-4.24-1-6.71-4.88-5.6-8.3h0a7.13,7.13,0,0,1,8.51-4.37,102,102,0,0,0,33.69,0,7.13,7.13,0,0,1,8.51,4.37h0C58.47,40.87,56,44.77,51.76,45.75Z"/><path class="a" d="M6.4,28.65a5.44,5.44,0,0,1,.24-2.19h0a7.13,7.13,0,0,1,8.51-4.37,102,102,0,0,0,33.69,0,7.13,7.13,0,0,1,8.51,4.37h0a5.4,5.4,0,0,1,.25,1.2"/><path class="a" d="M6.45,29.05q0-.2-.05-.41"/><path class="a" d="M57.6,27.66a5.53,5.53,0,0,1,0,1"/><path class="a" d="M6.9,37.34c-2.72-1.37-4-3.68-3.11-5.78h0C5,28.77,9.28,27.31,13.33,28A155.9,155.9,0,0,0,51,28c4.05-.68,8.28.79,9.53,3.57h0c.92,2.05-.34,4.32-3,5.7"/><path class="a" d="M11,25s2,12,7,12c4.12,0,6-11,11-11S39,38,43,38s3-12,7-12"/></svg>